<svg xmlns="http://www.w3.org/2000/svg" viewBox="0 0 479.05 128.35"><title>bannerleft</title><g id="Layer_2" data-name="Layer 2"><g id="Layer_1-2" data-name="Layer 1"><path d="M104,51.08c-3.52-1.7-6.6,1.68-5.69-.91,2.22-6.3,5.13-4.53,8-18.92-4.52,3.71-7.82,4.49-8.74,3.34-2.2-2.71,7.32-5.56,12.93-22.28-9,4.51-15.82-.09-29.14,6.54,0,0,10.42-6.74,11.13-15.08C81,9.71,72.28,4.34,63.1,13.29A26.43,26.43,0,0,0,65.42,0C51,8.8,28.57,8.27,22.55,22.42c-1.46,3.43-.72.37-2.37-6C9,30.73,7.83,54.89,9.77,59.87c.83,2.13-.91.23-4.9,2C2.4,63,.5,64.84.07,70-.69,79.19,5,82.52,7.84,80.55c3.65-2.52,2.27,3.13,4,8.79,2.1,6.8,6.53,11.29,11.57,15,7.61,5.54,19.24,11.1,21.67,16.62,2.37-2.86,2-5.68,2.41-5.16,1.67,2.42,1.87,2.8,3.07,9.36,3.89-2.49,4.64-4.43,6.61-5.09.17,3.37,1.71,3.8-.18,8.31,12.46-5.68,12.61-9,14.63-11.52-.31,2.12.91,2-.35,4.66,4.89-4.24,8.82-10.4,17.89-22.63,6.16-8.32,6.88-18.54,6.45-24.08-.47-6.11,3.16-8.71,4.46-8.65s3.14.3,4.68-.84C107.52,63.25,108.05,53,104,51.08ZM35.14,40.47c5.31-.15,10.67.27,16,6.64A3,3,0,0,0,55.77,47c4.36-5.24,11-9,16.82-9.19,6.47-.17,14.49,3.84,17.88,13.36h-.73c-9.44-2.26-23.92.06-29.55,2.4-2.09.86-4.55,2.06-6.7,2.22s-4.75-.66-7-1.2C40.62,53.14,26,53,17,56.64c0,0-.68.53-1.14.83C17.71,46.36,25.21,40.76,35.14,40.47ZM84.31,63c-.31,2.37-1,6.32-3,7.7-2.24,1.57-6.81,2.67-10.72,2.47s-6.6-1.48-8.35-4.26C60.84,66.65,58.5,60,59.55,57.54s7.51-3.72,10.51-4.13c4-.54,10-.87,12.53.61S84.63,60.6,84.31,63ZM46.77,70.05c-1.32,3-3.79,4.67-7.63,5.45s-8.52.37-11-.84c-2.15-1.08-3.43-4.88-4.1-7.18s-1.91-7.27.37-9.11S32.74,56,36.75,55.9c3,0,9.6.28,11,2.52S47.84,67.62,46.77,70.05Zm29.78,9.67a3,3,0,0,0-.72,3.59c1.41,2.88.59,7.71-1.45,13.78-2.62,7.75-3.6,14.68-17.6,13.68C46.34,110,46,109.82,42,105.55c-3.41-3.68-2.85-3.31-4.21-4.46-2.45-2.08-2-6.5-2.14-9-.12-1.62.6-2.34,1.93-5.14.63-1.34.45-3.47-1-3.77-7.93-1.64-19.6-2.86-21.21-20.6l2.21-.83A1.92,1.92,0,0,1,20,63c.69,1.81,2.54,9.31,5.12,12.11,3.19,3.46,9.48,3.14,13.72,2.64,5.7-.68,9.25-3.5,10.53-7.92s1.9-8.18,2.84-9.42a2.39,2.39,0,0,1,3.32-.25c1.11,1.09,2.29,4.71,4.21,8.89s5.85,6.45,11.59,6.26c4.26-.13,10.53-.74,13.18-4.65,2.12-3.14,2.84-10.84,3.25-12.73a1.92,1.92,0,0,1,2.12-1.64L91.68,56c.11.69.19,1.4.28,2.14C94.26,77.66,78.57,78,76.55,79.72Z"/><path d="M169.61,49.62a3.47,3.47,0,0,1-.8,2.21,2.6,2.6,0,0,1-2.2,1.07,3.79,3.79,0,0,1-1.81-.47,17.87,17.87,0,0,0-8.94-2.34,17.55,17.55,0,0,0-8.85,2.2,15.32,15.32,0,0,0-6,6.18,18.89,18.89,0,0,0-2.14,9.11,19.51,19.51,0,0,0,2.2,9.55,15,15,0,0,0,6.08,6.11,17.89,17.89,0,0,0,8.68,2.1,17.06,17.06,0,0,0,8.94-2.4,3.83,3.83,0,0,1,1.74-.4,2.81,2.81,0,0,1,2.34,1.13,3.39,3.39,0,0,1,.8,2.14,2.81,2.81,0,0,1-.44,1.5,3.06,3.06,0,0,1-1.16,1.1,25.17,25.17,0,0,1-5.85,2.34,24.48,24.48,0,0,1-6.37.87,25.2,25.2,0,0,1-11.92-2.87,21.76,21.76,0,0,1-8.68-8.35A24.7,24.7,0,0,1,132,67.58a24.15,24.15,0,0,1,3.11-12.18,22.55,22.55,0,0,1,8.54-8.55A25.08,25.08,0,0,1,168,47,2.84,2.84,0,0,1,169.61,49.62Z"/><path d="M205.66,69.92V87.75a3.16,3.16,0,0,1-.9,2.27,3.07,3.07,0,0,1-2.3.93,3,3,0,0,1-2.24-.93,3.16,3.16,0,0,1-.9-2.27V69.92q0-8.69-7.34-8.68a9.11,9.11,0,0,0-6.55,2.5,8.25,8.25,0,0,0-2.6,6.18V87.75a3.16,3.16,0,0,1-.9,2.27,3.07,3.07,0,0,1-2.31.93,3,3,0,0,1-2.27-.9,3.21,3.21,0,0,1-.86-2.3v-43a3.15,3.15,0,0,1,.9-2.27,3,3,0,0,1,2.23-.93,3.07,3.07,0,0,1,2.31.93,3.15,3.15,0,0,1,.9,2.27V61.64a14.35,14.35,0,0,1,4.67-4.44,12.11,12.11,0,0,1,6.41-1.83Q205.66,55.37,205.66,69.92Z"/><path d="M215.17,50.53a2.8,2.8,0,0,1-.83-2.24V47.22a2.65,2.65,0,0,1,.9-2.27,4.71,4.71,0,0,1,2.77-.67,4.25,4.25,0,0,1,2.71.7,2.8,2.8,0,0,1,.83,2.24v1.07a2.69,2.69,0,0,1-.87,2.27,4.54,4.54,0,0,1-2.74.67A4.37,4.37,0,0,1,215.17,50.53ZM220.25,90a3.07,3.07,0,0,1-2.31.93,3,3,0,0,1-2.23-.93,3.16,3.16,0,0,1-.9-2.27V58.84a3.15,3.15,0,0,1,.9-2.27,3,3,0,0,1,2.23-.94,3,3,0,0,1,2.31.94,3.15,3.15,0,0,1,.9,2.27V87.75A3.16,3.16,0,0,1,220.25,90Z"/><path d="M282.1,69.92V87.75a3.18,3.18,0,0,1-.87,2.3A3,3,0,0,1,279,91a3.07,3.07,0,0,1-2.31-.93,3.16,3.16,0,0,1-.9-2.27V70q0-8.74-7.34-8.75a9.51,9.51,0,0,0-4.71,1.17A8.52,8.52,0,0,0,259.27,70V87.75a3.16,3.16,0,0,1-.9,2.27,3.07,3.07,0,0,1-2.3.93,3,3,0,0,1-2.27-.9,3.18,3.18,0,0,1-.87-2.3V69.92a10.77,10.77,0,0,0-1.67-6.31q-1.66-2.37-5.54-2.37a9,9,0,0,0-6.51,2.5,8.26,8.26,0,0,0-2.57,6.18V87.75a3.16,3.16,0,0,1-.9,2.27,3.07,3.07,0,0,1-2.31.93,3,3,0,0,1-2.27-.9,3.17,3.17,0,0,1-.86-2.3V59.17a3.16,3.16,0,0,1,.9-2.27,3,3,0,0,1,2.23-.93,3.07,3.07,0,0,1,2.31.93,3.16,3.16,0,0,1,.9,2.27v2.34a14.33,14.33,0,0,1,4.64-4.37,11.89,11.89,0,0,1,6.31-1.77q8.26,0,10.75,7.34a14,14,0,0,1,4.87-5.07,12.72,12.72,0,0,1,7.21-2.27Q282.1,55.37,282.1,69.92Z"/><path d="M317.35,57.67a15.87,15.87,0,0,1,5.78,6.44,20.39,20.39,0,0,1,2.1,9.35,20.16,20.16,0,0,1-2.1,9.31,16.13,16.13,0,0,1-5.78,6.44,14.71,14.71,0,0,1-8.08,2.34A14,14,0,0,1,302.8,90a15.61,15.61,0,0,1-4.87-3.74V101.1a3.13,3.13,0,0,1-.91,2.27,3.27,3.27,0,0,1-4.54,0,3.12,3.12,0,0,1-.9-2.3v-42a3.28,3.28,0,0,1,.87-2.33,2.94,2.94,0,0,1,2.27-.94,3,3,0,0,1,2.3.94,3.19,3.19,0,0,1,.91,2.33V61a12.93,12.93,0,0,1,4.67-4,13.43,13.43,0,0,1,6.54-1.67A15.06,15.06,0,0,1,317.35,57.67ZM314,84.07a10.74,10.74,0,0,0,3.84-4.37,14.9,14.9,0,0,0,0-12.48A10.84,10.84,0,0,0,314,62.84a10,10,0,0,0-5.54-1.6,10.2,10.2,0,0,0-5.61,1.57A10.48,10.48,0,0,0,299,67.18a15.06,15.06,0,0,0,0,12.55,10.51,10.51,0,0,0,3.84,4.38,10.28,10.28,0,0,0,5.61,1.57A10,10,0,0,0,314,84.07Z"/><path d="M356.58,56.83c2.33,1.12,3.5,2.54,3.5,4.28a3.13,3.13,0,0,1-.73,2,2.32,2.32,0,0,1-1.87.9,2.91,2.91,0,0,1-1.37-.26,15.06,15.06,0,0,1-1.37-.87,6.85,6.85,0,0,0-1.27-.93,8.63,8.63,0,0,0-2.27-.67,14.9,14.9,0,0,0-2.67-.27,11.69,11.69,0,0,0-6.14,1.6,11,11,0,0,0-4.14,4.44,14.47,14.47,0,0,0,0,12.65,10.83,10.83,0,0,0,4,4.41,11.06,11.06,0,0,0,5.94,1.6,12.52,12.52,0,0,0,5.61-1.07,11.5,11.5,0,0,0,1.26-.86,7.44,7.44,0,0,1,1.17-.8,2.61,2.61,0,0,1,1.24-.27,2.73,2.73,0,0,1,2.1.83,3.1,3.1,0,0,1,.77,2.17,3.69,3.69,0,0,1-1.77,2.77,14.14,14.14,0,0,1-4.74,2.24,22.62,22.62,0,0,1-6.38.87,16.77,16.77,0,0,1-8.94-2.37,15.86,15.86,0,0,1-6-6.55,20.39,20.39,0,0,1-2.1-9.31,19.59,19.59,0,0,1,2.2-9.31,16.47,16.47,0,0,1,6.14-6.54,17.15,17.15,0,0,1,9-2.37A20.47,20.47,0,0,1,356.58,56.83Z"/><path d="M397.67,82.81a17,17,0,0,1-6.38,6.47,18.13,18.13,0,0,1-17.82,0,17,17,0,0,1-6.38-6.47,18.68,18.68,0,0,1-2.34-9.35A19.08,19.08,0,0,1,367.09,64a16.86,16.86,0,0,1,6.38-6.54,18.2,18.2,0,0,1,17.82,0A16.93,16.93,0,0,1,397.67,64,19.07,19.07,0,0,1,400,73.46,18.67,18.67,0,0,1,397.67,82.81ZM392.16,67a11.13,11.13,0,0,0-4.07-4.41,11.17,11.17,0,0,0-11.42,0A11.13,11.13,0,0,0,372.6,67a13.57,13.57,0,0,0-1.5,6.44,13.22,13.22,0,0,0,1.5,6.34,11.15,11.15,0,0,0,4.07,4.37,11.17,11.17,0,0,0,11.42,0,11.15,11.15,0,0,0,4.07-4.37,13.22,13.22,0,0,0,1.5-6.34A13.57,13.57,0,0,0,392.16,67Z"/><path d="M438,42.45a3.09,3.09,0,0,1,.91,2.3v43A3.13,3.13,0,0,1,438,90a3.05,3.05,0,0,1-2.3.93,3,3,0,0,1-2.27-.9,3.18,3.18,0,0,1-.87-2.3V85.88a14.11,14.11,0,0,1-11.21,5.74,14.93,14.93,0,0,1-8.21-2.34,16.34,16.34,0,0,1-5.81-6.51,20.21,20.21,0,0,1-2.14-9.38,20.57,20.57,0,0,1,2.1-9.38,16.2,16.2,0,0,1,5.78-6.51,15.26,15.26,0,0,1,14.62-.87,13.94,13.94,0,0,1,4.87,3.81V44.75a3.18,3.18,0,0,1,.87-2.3,3,3,0,0,1,2.27-.9A3.1,3.1,0,0,1,438,42.45ZM427.68,84.14a10.85,10.85,0,0,0,3.8-4.41,14.26,14.26,0,0,0,1.37-6.34,14.41,14.41,0,0,0-1.37-6.31,10.81,10.81,0,0,0-3.8-4.44,10.51,10.51,0,0,0-11.15,0,10.76,10.76,0,0,0-3.81,4.44,14.41,14.41,0,0,0-1.37,6.31,14.26,14.26,0,0,0,1.37,6.34,10.8,10.8,0,0,0,3.81,4.41,10.51,10.51,0,0,0,11.15,0Z"/><path d="M478.05,74.16a3.19,3.19,0,0,1-2.2.83h-23.5a11.62,11.62,0,0,0,3.7,7.82A11.39,11.39,0,0,0,464,85.74a12.46,12.46,0,0,0,5.21-.93,13.19,13.19,0,0,0,3.54-2.41,3.76,3.76,0,0,1,1.93-.6,2.57,2.57,0,0,1,1.91.8,2.63,2.63,0,0,1,.76,1.87A3.29,3.29,0,0,1,476,87a15.78,15.78,0,0,1-5.14,3.27,16.89,16.89,0,0,1-6.54,1.34,19.4,19.4,0,0,1-9.52-2.27A15.85,15.85,0,0,1,448.44,83a18.87,18.87,0,0,1-2.24-9.22,20.28,20.28,0,0,1,2.31-9.85,16.66,16.66,0,0,1,6.07-6.5,15.65,15.65,0,0,1,16.12-.07,16.66,16.66,0,0,1,6,6.07,17.26,17.26,0,0,1,2.34,8.68A2.86,2.86,0,0,1,478.05,74.16Zm-21.83-11a10.38,10.38,0,0,0-3.61,6.51h19.7v-.53a8.18,8.18,0,0,0-3.17-5.81A10.08,10.08,0,0,0,462.69,61,10.31,10.31,0,0,0,456.22,63.14Z"/></g></g></svg>